<svg xmlns="http://www.w3.org/2000/svg" viewBox="0 0 1519.8 100"><style>.st0{fill:#fff}</style><path class="st0" d="M857 97.9h16.3V2.6H857v95.3zm63.1-.2h15.7V35.8l66.1 63.4V2.5h-15.7v60.9L920.1 1v96.7zM1043.8 74c8.7 7 19.2 11 30.5 11 11 0 18.7-3.9 18.7-12.4 0-7.4-4.9-10.4-13.5-13.6l-13.9-5c-12.8-4.7-22.6-11.5-22.6-27.2C1043 10 1057.8.9 1075.4.9c10.8 0 20.7 2.8 28.4 7.7v16.6c-8-6.1-16.8-10.2-28-10.2-9.7 0-16.9 3.7-16.9 11.4 0 7 4.6 9.8 12.6 12.6l15.5 5.6c15 5.4 21.9 13.8 21.9 27.6 0 17.4-14.9 27-34.5 27-12.8 0-23.8-3.7-30.5-8.3l-.1-16.9zM1151 97.9h16.3V2.6H1151v95.3zm100.2-14.5c20.2 0 31-12.9 31-33.2 0-20.5-10.8-33.3-31-33.3h-19.9v66.6h19.9zM1215 2.6h36.8c28.4 0 46.7 18.6 46.7 47.6s-18.3 47.6-46.7 47.6H1215V2.6zm176.3 0v14.3H1349v22.9h37.9v14.1H1349v29.5h42.3v14.4H1333V2.6h58.3zm65 43.1h18.3c10.8 0 16.9-5.8 16.9-14.6s-6.1-14.6-16.9-14.6h-18.3v29.2zm0 13.5v38.6H1440V2.6h34.8c19.9 0 32.7 9.9 32.7 28.6 0 15.9-7.1 25.1-22.3 27.4l34.6 39.2h-18.5l-33.5-38.6h-11.5zM54.1 48.5C61.2 46 66.7 38.4 66.7 28c0-17.3-12.6-26.3-32.8-26.3H0v96.8h37c20.2 0 32.8-9.6 32.8-27.7 0-10.4-6.6-19.3-15.7-22.3zm-38.2-6.2V15.8h17.8c11.2 0 17.2 3.9 17.2 13.1s-6 13.4-17.2 13.4H15.9zm0 13.6h20.8c11 0 17 5.4 17 14.2 0 8.7-6 14.2-17 14.2H15.9V55.9zM143.7 100c23.2 0 38.8-13.6 38.8-40V1.6h-16.4V58c0 18.6-7.9 27.3-22.4 27.3-14.5 0-22.4-8.7-22.4-27.3V1.6H105v58.2c0 26.6 15.7 40.2 38.7 40.2zm77.4-8.5c6.8 4.7 17.8 8.5 30.7 8.5 19.7 0 34.7-9.8 34.7-27.4 0-14-6.9-22.5-22.1-28.1l-15.6-5.7c-8-2.8-12.6-5.7-12.6-12.8 0-7.9 7.2-11.7 17-11.7 11.3 0 20.2 4.3 28.2 10.4V7.9c-7.7-5-17.6-7.9-28.5-7.9-17.8 0-32.6 9.3-32.6 26.3 0 15.9 9.8 22.9 22.7 27.6l14 5c8.7 3.3 13.6 6.3 13.6 13.9 0 8.7-7.7 12.6-18.8 12.6-11.3 0-21.9-4.1-30.7-11.2v17.3zm124-89.9h-16.4v96.8h16.4V1.6zm46.7 96.7h15.8v-63l66.5 64.5V1.5h-15.7v61.9L391.8 0v98.3zM576.5 1.7v14.5H534v23.3h38.2v14.3H534v30h42.5v14.6h-58.6V1.7h58.6zm38.1 89.7c6.8 4.7 17.8 8.5 30.7 8.5 19.7 0 34.7-9.8 34.7-27.4 0-14-6.9-22.5-22.1-28.1l-15.6-5.7c-8-2.8-12.6-5.7-12.6-12.8 0-7.9 7.2-11.7 17-11.7 11.3 0 20.2 4.3 28.2 10.4V7.9c-7.7-5-17.7-7.9-28.5-7.9-17.8 0-32.6 9.3-32.6 26.3 0 15.9 9.8 22.9 22.7 27.6l14 5c8.7 3.3 13.6 6.3 13.6 13.9 0 8.7-7.7 12.6-18.8 12.6-11.3 0-21.9-4.1-30.7-11.2v17.2zm99 0c6.8 4.7 17.8 8.5 30.7 8.5 19.7 0 34.7-9.8 34.7-27.4 0-14-6.9-22.5-22.1-28.1l-15.6-5.7c-8-2.8-12.6-5.7-12.6-12.8 0-7.9 7.2-11.7 17-11.7 11.3 0 20.2 4.3 28.2 10.4V7.9c-7.7-5-17.7-7.9-28.5-7.9-17.8 0-32.6 9.3-32.6 26.3 0 15.9 9.8 22.9 22.7 27.6l14 5c8.7 3.3 13.6 6.3 13.6 13.9 0 8.7-7.7 12.6-18.8 12.6-11.3 0-21.9-4.1-30.7-11.2v17.2z"/></svg>