<svg width="74" height="23" viewBox="0 0 74 23" xmlns="http://www.w3.org/2000/svg"><g fill="none" fill-rule="evenodd"><path fill="#279ACB" d="M0 0h74v23H0z"/><g fill="#FFF"><path d="M65.948 7.235v1.306h-3.79v2.098h3.4v1.291h-3.4v2.705h3.79v1.319h-5.22V7.235zM57.372 7.14l-4.314 4.185-4.314-4.184v8.813h1.198v-5.645l2.007 1.953.989.958.99-.958-.003-.002 2.009-1.95v5.644h1.438zM43.95 15.954h1.438V7.235H43.95zM36.05 11.19h1.627c.963 0 1.506-.523 1.506-1.325 0-.803-.543-1.325-1.506-1.325h-1.626v2.65zm0 1.225v3.512h-1.447V7.27h3.102c1.769 0 2.912.9 2.912 2.595 0 1.45-.635 2.282-1.988 2.495l3.078 3.567H40.06l-2.98-3.512h-1.03zM29.251 8.48h-1.838v2.99h1.838c1.01 0 1.53-.627 1.53-1.487 0-.89-.52-1.502-1.53-1.502zm-1.838 4.236v2.989h-1.438v-8.47h3.45c1.5 0 2.756 1.258 2.73 2.815-.028 1.736-1.17 2.666-2.903 2.666h-1.839zM17.222 15.938h1.412v-8.68h-1.412zM12.793 11.457c.63-.226 1.118-.905 1.118-1.838 0-1.554-1.118-2.36-2.906-2.36H8v8.679h3.284c1.789 0 2.907-.862 2.907-2.488 0-.919-.587-1.724-1.398-1.993zm-3.382-.551V8.531h1.58c.992 0 1.523.354 1.523 1.173 0 .82-.531 1.202-1.523 1.202H9.41zm0 1.216h1.845c.978 0 1.51.48 1.51 1.272 0 .777-.532 1.272-1.51 1.272H9.411v-2.544z"/></g></g></svg>