<svg xmlns="http://www.w3.org/2000/svg" viewBox="0 0 887.3 293.1"><style>.st0{fill:#8abee7}.st1{fill:#104b89}</style><path class="st0" d="M22.2 291H0V160.9h22.1V291zM199.8 293l-89.4-86.6V291H89.1V158.9l89.5 85.2v-83.2h21.2V293zM256.5 258.5c11.8 9.5 26.1 15.1 41.3 15.1 14.8 0 25.3-5.3 25.3-17 0-10.2-6.6-14.2-18.3-18.6l-18.8-6.8c-17.4-6.4-30.6-15.7-30.6-37.1 0-22.9 20-35.4 43.9-35.4 14.6 0 28 3.8 38.4 10.6V192c-10.8-8.3-22.7-14-37.9-14-13.1 0-22.9 5.1-22.9 15.6 0 9.6 6.2 13.4 17 17.2l21 7.6c20.3 7.4 29.7 18.9 29.7 37.7 0 23.7-20.2 36.8-46.7 36.8-17.4 0-32.2-5-41.3-11.4v-23zM416.1 291H394V160.9h22.1V291zM484.2 160.9h49.9c38.4 0 63.2 25.4 63.2 65S572.5 291 534.1 291h-49.9V160.9zm49 110.4c27.3 0 41.9-17.6 41.9-45.4 0-28-14.6-45.5-41.9-45.5h-27v90.9h27zM726.2 160.9v19.5h-57.3v31.3h51.4V231h-51.4v40.4h57.3V291h-78.9V160.9h78.9zM801.3 238.2V291h-22V160.9h47.2c26.9 0 44.3 13.5 44.3 39 0 21.8-9.7 34.3-30.2 37.5l46.8 53.6h-25L817 238.2h-15.7zm0-18.4H826c14.6 0 22.9-7.9 22.9-19.9 0-12.1-8.3-19.9-22.9-19.9h-24.7v39.8z"/><g><path class="st1" d="M123.8 130.7H114V9.9h-1.9L69.5 126.4c-1.3 3.5-2 4.3-5.4 4.3h-4.8c-3.3 0-4.1-.7-5.4-4.3L11.3 9.3H9.5v121.4H0V.6h14.1c3.5 0 4.7.9 5.6 4.1l41.5 114.9h1.7L104.1 4.7c1.1-3.2 2-4.1 5.6-4.1h14.1v130.1zM239.1 88.5h-58.2l-14.1 42.2h-9.9l43-126C201.2 1 202.3 0 207 0h6.5c4.6 0 5.8.9 7.1 4.7l43.1 126.1h-10.4l-14.2-42.3zm-55.4-8.4h52.4l-24-71.4h-4.5l-23.9 71.4zM370.9 76c-3-2.8-7.1-4.1-15.4-4.1h-49.3v58.8h-9.7V.6H359c9.5 0 15.2 1.3 19.3 5.6 5 5 8.2 11.2 8.2 29.8 0 22.3-6.5 28.8-17.9 32 12.1 3.2 16.2 7.1 16.9 29.4.6 13.2 1.3 25.1 2.4 33.3h-9.7c-1.3-8.7-2-20.8-2.4-32.9-.5-15.1-2.1-19-4.9-21.8zm-14.1-12.4c7.8 0 11.3-1.5 13.9-4.3 2.6-2.6 6.1-7.2 6.1-23.1 0-16.2-3.2-21-6-23.8-2.6-2.6-6.7-3.5-13.8-3.5h-50.9v54.7h50.7zM522.4.6l-57.1 62.1 58.2 68h-11.9l-53.9-63.4h-17.1v63.4h-9.7V.6h9.7V59h16.6L510.6.6h11.8zM638 130.7h-83.3V.6H639V9h-74.5v49.8H630v8.4h-65.6v55.2H638v8.3zM713.5 8.9v121.8h-9.7V8.9h-43.5V.6h96.9V9h-43.7zM871.5 125.1c-3.5 3.5-8.5 5.6-18.2 5.6h-44.8c-9.1 0-14.3-1.5-18.2-5.2-4.7-4.8-6.7-9.1-6.7-32.7h9.5c.2 20.1 1.5 23.2 4.3 26 2.6 2.6 5.8 3.5 12.1 3.5h42.9c6.7 0 9.9-1.1 12.6-3.7 3-3 4.3-8.6 4.3-22.3 0-14.1-.7-17.7-4.1-20.8-2.4-2.4-5.2-3.3-13.9-4.3l-40.5-3.7c-10.6-.9-16-3-19.3-6.3-4.1-4.1-5.9-9.8-5.9-26.4 0-15.2 2-23.2 7.4-28.6 3.5-3.5 8.5-5.6 18-5.6h40.7c9.1 0 14.3 1.5 18.2 5.2 5 5.2 6.5 10.4 6.7 31.6h-9.5c-.2-17.7-1.3-21.9-4.3-24.9C860.2 9.9 857 9 850.7 9H812c-6.7 0-9.9 1.1-12.5 3.7-3.3 3.4-4.5 9.7-4.5 21.9 0 13.6 1.1 16.9 4.1 19.9 2.4 2.4 5.2 3.2 13.9 4.1l40.5 3.7c10.6.9 15.8 3 19.3 6.3 4.3 4.5 6 10.8 6 27.7.2 16.7-2.1 23.6-7.3 28.8z"/></g></svg>